<?xml version="1.0" encoding="UTF-8"?>
<!-- Generator: Adobe Illustrator 21.0.0, SVG Export Plug-In . SVG Version: 6.00 Build 0)  -->
<svg version="1.1" id="svg2" inkscape:export-filename="C:\Users\Damian\OneDrive\Silky Stuff\Images\logo1.png" inkscape:export-xdpi="37.432453" inkscape:export-ydpi="37.432453" inkscape:version="0.91 r13725" sodipodi:docname="logo1.svg" xmlns:cc="http://creativecommons.org/ns#" xmlns:dc="http://purl.org/dc/elements/1.1/" xmlns:inkscape="http://www.inkscape.org/namespaces/inkscape" xmlns:rdf="http://www.w3.org/1999/02/22-rdf-syntax-ns#" xmlns:sodipodi="http://sodipodi.sourceforge.net/DTD/sodipodi-0.dtd" xmlns:svg="http://www.w3.org/2000/svg" xmlns="http://www.w3.org/2000/svg" xmlns:xlink="http://www.w3.org/1999/xlink" x="0px" y="0px" viewBox="0 0 204 64.1" style="enable-background:new 0 0 204 64.1;" xml:space="preserve">
<style type="text/css">
	.st0{fill:#FFFFFF;}
</style>
<sodipodi:namedview bordercolor="#666666" borderopacity="1.0" fit-margin-bottom="1" fit-margin-left="2" fit-margin-right="2" fit-margin-top="2" id="base" inkscape:current-layer="layer1" inkscape:cx="183.94301" inkscape:cy="36.574911" inkscape:document-units="px" inkscape:pageopacity="0.0" inkscape:pageshadow="2" inkscape:window-height="801" inkscape:window-maximized="1" inkscape:window-width="1536" inkscape:window-x="-8" inkscape:window-y="-8" inkscape:zoom="1.4325572" pagecolor="#ffffff" showgrid="false">
	</sodipodi:namedview>
<path id="path4694" inkscape:connector-curvature="0" class="st0" d="M5.7,57.3v-3.9l0.9,0c1.4,0,3.5-1.1,4.8-2.6c2-2.2,2-2.1,2-19  v-15h3.9h3.9l-0.1,15.9c-0.1,17.6,0,16.9-1.9,20.5c-1.2,2.3-4.2,5.2-6.5,6.3c-1.9,0.9-4.6,1.7-6.1,1.7l-0.9,0L5.7,57.3L5.7,57.3z   M36.3,46.2c-2.6-0.7-4.9-2-6.9-4c-3.1-3.1-4.6-6.5-4.6-10.8s1.4-7.7,4.6-10.8c3-3,6.6-4.5,10.6-4.5c2.4,0,3.9,0.4,6,1.4  c0.9,0.4,1.6,0.8,1.7,0.8c0.1,0,0.1-0.3,0.1-0.7v-0.7h3.9h3.9v14.5v14.5h-3.9h-3.9v-0.7v-0.7l-1.4,0.7c-0.8,0.4-2,0.9-2.8,1.1  C41.7,46.7,38.2,46.7,36.3,46.2z M43.5,38.4c1.5-0.7,3.2-2.5,3.8-3.9c0.5-1.2,0.5-5.3,0-6.5c-0.5-1.3-2.2-3.1-3.5-3.7  c-1.4-0.7-4.3-0.9-5.9-0.5c-0.7,0.2-1.8,0.8-2.5,1.3c-4,3-4,9.3,0,12.3c1.7,1.3,2.5,1.5,4.9,1.6C41.7,39,42.4,38.9,43.5,38.4  L43.5,38.4z M130.1,46.2c-9.9-2.8-14.5-14.1-9.2-22.8c1.4-2.4,3.8-4.6,6.3-5.8c2.5-1.2,4.3-1.6,6.9-1.6c8.5,0,15.2,6.8,15.2,15.3  c0,6.6-3.8,12.1-9.9,14.4C137.1,46.6,132.5,46.8,130.1,46.2L130.1,46.2z M136.8,38.6c4.6-1.9,6.4-6.8,4-11.3  c-1.3-2.4-3.7-3.8-6.7-3.8c-4.4,0-7.7,3.3-7.7,7.7c0,3.2,1.7,5.9,4.6,7.2C132.4,39.1,135.4,39.2,136.8,38.6L136.8,38.6z M153.2,31.7  V16.8h3.9h3.9v10.3v10.3l0.6-0.2c2.4-0.7,6.1-3.3,8.4-5.8c3.5-3.8,5.3-7.8,6-13.4l0.2-1.3h3.9h3.9l-0.1,1.2  c-0.7,6.7-2.3,11.1-5.8,16c-3.5,4.8-8.5,8.6-14.5,10.9c-2.3,0.9-6.7,1.7-8.8,1.7h-1.7V31.7z M61.2,31.4V16.8H65h3.8v0.8v0.8l1.6-1.1  c2-1.3,4.4-2.1,6.3-2.1c3.3,0,7.3,1.6,9.8,3.8l1.5,1.4l1.5-1.4c2.5-2.3,6.5-3.8,9.9-3.8c7,0,13.3,4.9,15,11.8  c0.3,1.3,0.4,3.4,0.4,10.4v8.8l-3.9-0.1l-3.9-0.1l-0.1-8.8c-0.1-8.4-0.2-8.9-0.7-9.9c-2-3.7-6.4-5.2-10.1-3.4  c-1.8,0.9-2.8,1.9-3.7,3.8c-0.5,1.1-0.6,1.8-0.7,9.8l-0.1,8.6L88,46l-3.8-0.1L84,37.1c-0.2-9.8-0.2-9.9-2.1-11.8  c-1.6-1.6-2.9-2.1-5.4-2.1c-2.5,0-3.8,0.5-5.4,2.2c-1.9,2-1.9,2-2.1,11.8L69,45.9L65.1,46l-3.9,0.1V31.4L61.2,31.4z M187.9,31.3  V16.8h3.8h3.8v14.5v14.5h-3.8h-3.8V31.3z M13.3,9.5V5.7h3.8h3.8v3.8v3.8h-3.8h-3.8V9.5z M187.9,9.5V5.7h3.8h3.8v3.8v3.8h-3.8h-3.8  V9.5z"/>
</svg>